<svg xmlns="http://www.w3.org/2000/svg" viewBox="0 0 549.53 168.36"><defs><style>.cls-1{fill:#76bc21;}.cls-2{fill:#ffcd00;}.cls-3{fill:#dd8797;}.cls-4{fill:#00a7e1;}.cls-5{fill:#0075c9;}.cls-6{fill:#8f4899;}.cls-7{fill:#ff8300;}.cls-8{fill:#007565;}.cls-9{fill:#00a887;}.cls-10{fill:#002169;}.cls-11{fill:#005cb9;}.cls-12{fill:#73308a;}.cls-13{fill:#b4008d;}.cls-14{fill:#ff595a;}</style></defs><title>Recurso 2</title><g id="Capa_2" data-name="Capa 2"><g id="Capa_1-2" data-name="Capa 1"><path class="cls-1" d="M.51,52h11.2a20.77,20.77,0,0,0,3.36-.28,1.55,1.55,0,0,0,1.29-1.23A44.45,44.45,0,0,1,59.75,15.38H62A40.42,40.42,0,0,0,62.72,8V0h-3A59.76,59.76,0,0,0,.51,52Z"/><path class="cls-2" d="M50.46,152a44.45,44.45,0,0,1-35.08-43.39v-2.29A40.45,40.45,0,0,0,8,105.63H0v3a59.76,59.76,0,0,0,52,59.24v-11.2a20.77,20.77,0,0,0-.28-3.36A1.55,1.55,0,0,0,50.46,152Z"/><path class="cls-3" d="M153.29,116.66A1.58,1.58,0,0,0,152,117.9,44.45,44.45,0,0,1,108.61,153h-2.3a41.32,41.32,0,0,0-.67,7.4h0v8h3a59.76,59.76,0,0,0,59.24-52h-11.2A20.77,20.77,0,0,0,153.29,116.66Z"/><path class="cls-4" d="M116.39.51v11.2a20.77,20.77,0,0,0,.27,3.36,1.59,1.59,0,0,0,1.24,1.29A44.45,44.45,0,0,1,153,59.74V62a40.45,40.45,0,0,0,7.41.68h8v-3A59.75,59.75,0,0,0,116.39.51Z"/><polygon class="cls-5" points="62.72 160.38 62.72 160.38 62.72 168.36 62.72 168.36 62.72 160.38 62.72 160.38"/><polygon class="cls-6" points="105.64 168.36 105.64 168.36 105.64 160.38 105.64 160.38 105.64 160.38 105.64 168.36"/><polygon class="cls-5" points="105.64 7.98 105.64 7.98 105.64 0 105.64 0 105.64 7.98 105.64 7.98"/><polygon class="cls-6" points="62.72 0 62.72 0 62.72 7.98 62.72 7.98 62.72 7.98 62.72 0"/><path class="cls-7" d="M68.83,129a56.36,56.36,0,0,0-6.9-8.35L47.77,106.43a57,57,0,0,0-8.36-6.9A55.88,55.88,0,0,0,8,90H0v15.68H8a40.34,40.34,0,0,1,28.7,11.89l14.17,14.17a40.31,40.31,0,0,1,11.88,28.69v8H78.41v-8A55.85,55.85,0,0,0,68.83,129Z"/><path class="cls-8" d="M74.6,51q-2.13,2.58-4.51,5L55.92,70.09q-2.39,2.39-5,4.51A67.64,67.64,0,0,1,8,90H8a55.88,55.88,0,0,1,31.44,9.58A81.76,81.76,0,0,0,51,93.76a83.87,83.87,0,0,0,12.9-9.58q1.62-1.46,3.16-3L81.18,67q1.54-1.55,3-3.16A83.23,83.23,0,0,1,74.6,51Z"/><path class="cls-9" d="M62.72,0V8A40.31,40.31,0,0,1,50.84,36.67L36.67,50.84A40.33,40.33,0,0,1,8,62.72H0V78.41H8a55.81,55.81,0,0,0,31.44-9.59,56.26,56.26,0,0,0,8.36-6.89L61.93,47.76a56.36,56.36,0,0,0,6.9-8.35A55.85,55.85,0,0,0,78.41,8V0Z"/><path class="cls-10" d="M112.44,70.09,98.27,55.92c-1.59-1.59-3.1-3.25-4.51-5A67.64,67.64,0,0,1,78.41,8h0a55.85,55.85,0,0,1-9.58,31.43h0A82.35,82.35,0,0,0,74.6,51a83.23,83.23,0,0,0,9.58,12.9q1.45,1.62,3,3.16l14.16,14.17q1.56,1.54,3.16,3a83.79,83.79,0,0,1,12.91-9.58Q114.83,72.47,112.44,70.09Z"/><path class="cls-11" d="M160.39,62.72a40.31,40.31,0,0,1-28.7-11.88L117.52,36.67A40.31,40.31,0,0,1,105.64,8V0H90V8a55.85,55.85,0,0,0,9.58,31.43,56.36,56.36,0,0,0,6.9,8.35l14.16,14.17A56.26,56.26,0,0,0,129,68.82a55.81,55.81,0,0,0,31.44,9.59h8V62.72h-8Z"/><path class="cls-12" d="M160.39,78.41A55.81,55.81,0,0,1,129,68.82a82.9,82.9,0,0,0-11.54,5.78,83.79,83.79,0,0,0-12.91,9.58q-1.6,1.45-3.16,3L87.18,101.35q-1.55,1.55-3,3.15a83.79,83.79,0,0,1,9.58,12.91c1.41-1.72,2.92-3.38,4.51-5l14.17-14.17c1.59-1.59,3.25-3.1,5-4.51a67.64,67.64,0,0,1,43-15.35Z"/><path class="cls-13" d="M160.39,90A55.88,55.88,0,0,0,129,99.53a57,57,0,0,0-8.36,6.9L106.43,120.6a56.36,56.36,0,0,0-6.9,8.35h0A55.85,55.85,0,0,0,90,160.38v8h15.68v-8h0a40.31,40.31,0,0,1,11.88-28.69l14.17-14.17a40.32,40.32,0,0,1,28.7-11.89h8V90Z"/><path class="cls-14" d="M93.76,117.41a83.79,83.79,0,0,0-9.58-12.91q-1.46-1.6-3-3.15L67,87.18q-1.55-1.55-3.16-3A83.87,83.87,0,0,1,51,93.76c1.72,1.41,3.38,2.92,5,4.51l14.17,14.17q2.39,2.39,4.51,5a67.64,67.64,0,0,1,15.35,43A55.85,55.85,0,0,1,99.53,129h0A81.22,81.22,0,0,0,93.76,117.41Z"/><path class="cls-10" d="M480,63.75a3.31,3.31,0,0,0,3.23-2.13l2.63-7.25c.24-.63,0-.95-.67-.95H467.62A3.64,3.64,0,0,0,464,55.8l-2.55,7c-.23.64,0,1,.67,1ZM257,54.46H244.39a4.86,4.86,0,0,0-4.95,3L229.11,79.37,218.87,57.45a5.25,5.25,0,0,0-5.06-3H201.89c-1.35,0-1.71.63-1,2l19.85,39v21.83c0,1,.45,1.53,1.35,1.53H236c.89,0,1.34-.54,1.34-1.53V95.63L258,56.44C258.71,55.09,258.35,54.46,257,54.46Zm43.84,15.32h-10.3a3.46,3.46,0,0,0-3.62,3.61v32.88h-5.79c-4,.09-5.89-.26-7.18-1.82-1-1.9-1.47-4.75-1.3-10.89V71.17c0-1-.43-1.39-1.3-1.39H261.22a3.7,3.7,0,0,0-3.7,3.7V98.14c0,9,.86,13.84,4.24,17s8,4.06,17,4.06q13.88,0,22-1.56c1-.26,1.21-.43,1.21-1.47v-45C302.05,70.21,301.62,69.78,300.84,69.78Zm47.09.69a65,65,0,0,0-13.42-1.12c-11.76.26-17.29,1.47-20.4,7.61-1.82,4.06-2.51,8.9-2.51,17.29v.09c0,8.39.69,13.23,2.51,17.29,3.11,6.14,8.64,7.35,20.4,7.61a65,65,0,0,0,13.42-1.12c1.91-.37,2.75-1.75,2.75-3.94v-6.53c0-1-.52-1.38-1.55-1.38H334.51c-3.2,0-5.36-.78-6.4-2.34s-1.45-4.68-1.46-9.42h0v-.43h0c0-4.74.53-7.89,1.46-9.43s3.2-2.33,6.4-2.33h14.62c1,0,1.55-.43,1.55-1.39V74.41C350.68,72.22,349.84,70.84,347.93,70.47Zm197.13,2.94c-3.37-3.2-8-4.06-16.95-4.06-10.46,0-17.9.52-22.13,1.55-.78.18-1.21.27-1.21,1.3v45.22c0,1,.43,1.39,1.21,1.39h12.71c.86,0,1.29-.43,1.29-1.39V82.32h5.8c4.23,0,5.7-.09,7.09,1.9s1.38,4.33,1.38,10.81v22.39c0,1,.43,1.39,1.21,1.39H548c.86,0,1.3-.43,1.3-1.39V90.36C549.3,81.37,548.43,76.61,545.06,73.41Zm-73.3-4.06a86.53,86.53,0,0,0-15.11,1.13c-2,.36-3,1.56-3,3.93V81c0,.87.35,1.3,1.13,1.3h16.94c4.41,0,6.57,1.73,6.57,5.1v1.73l-9.51.09c-6.65,0-11.41,1-14.35,2.94S450.06,98,450,103.76c.52,8.82,2.51,12.54,8.13,14.27a29.08,29.08,0,0,0,5.79,1c1.91.17,4.42.26,7.61.26a99.21,99.21,0,0,0,19.89-1.82,2.56,2.56,0,0,0,2.08-2.76V84.91C493.47,75.66,490.7,69.44,471.76,69.35Zm6.57,37.09a33.08,33.08,0,0,1-7.34.69c-4.76,0-6.14-.95-6.14-4.4,0-3.2,1.29-4.5,5.44-4.5h8ZM379.82,69.35a86.57,86.57,0,0,0-15.12,1.13c-2,.36-2.95,1.56-2.95,3.93V81c0,.87.34,1.3,1.12,1.3h16.95c4.41,0,6.57,1.73,6.57,5.1v1.73l-9.51.09c-6.66,0-11.41,1-14.35,2.94S358.12,98,358,103.76c.52,8.82,2.51,12.54,8.13,14.27a29,29,0,0,0,5.79,1c1.9.17,4.41.26,7.61.26a99.21,99.21,0,0,0,19.89-1.82,2.56,2.56,0,0,0,2.07-2.76V84.91C401.52,75.66,398.75,69.44,379.82,69.35Zm6.57,37.09a33.11,33.11,0,0,1-7.35.69c-4.75,0-6.14-.95-6.14-4.4,0-3.2,1.3-4.5,5.45-4.5h8Zm53.67-.68h-3.42c-3.86,0-5.12-.81-5.12-4.49V79.71h7.73c1,0,1.53-.45,1.53-1.44V69.56c0-.9-.54-1.35-1.53-1.35h-7.73V56.62A1.37,1.37,0,0,0,430,55.18l-9.71,0c-2.58,0-4.36,1.17-4.36,4.48v8.58H410.5c-1,0-1.53.45-1.53,1.35v8.71c0,1,.54,1.44,1.53,1.44h5.39v27.22c0,5.75,1.35,9.17,4.58,10.69a18.29,18.29,0,0,0,4.59,1.35,48.63,48.63,0,0,0,15-.72,1.69,1.69,0,0,0,1.53-1.8v-9.34C441.59,106.21,441.05,105.76,440.06,105.76Z"/><path class="cls-10" d="M219.07,19.83a.43.43,0,0,1,.48.49V32.19c0,4.8-.71,8.08-2.17,9.8s-4.25,2.6-8.44,2.6a25.4,25.4,0,0,1-5.16-.49.81.81,0,0,1-.75-.81V40.63a.43.43,0,0,1,.49-.49h5.42c2.24,0,3.73-.52,4.44-1.59s1.11-3.21,1.08-6.36V20.32a.43.43,0,0,1,.49-.49Z"/><path class="cls-10" d="M239.1,26.25c.29,0,.45.16.45.48V43.48c0,.39-.09.46-.45.56a45,45,0,0,1-7.79.55c-3.28,0-4.94-.26-6.24-1.43s-1.59-3-1.59-6.4v-10c0-.32.17-.48.52-.48h3.83a.42.42,0,0,1,.46.48v8.8a14.15,14.15,0,0,0,.29,3.41c.39,1.3,1,1.49,3.21,1.49h2.93V26.73a.42.42,0,0,1,.48-.48Z"/><path class="cls-10" d="M257.87,27.51c1.3,1.17,1.62,3,1.62,6.36v10a.45.45,0,0,1-.52.52h-3.83c-.32,0-.49-.17-.49-.52v-8.8c0-2.44,0-3.47-.65-4.16s-1.13-.71-2.82-.71h-3V43.91c0,.35-.16.52-.48.52h-3.87c-.32,0-.48-.17-.48-.52V27.12c0-.39.16-.42.48-.48a39.69,39.69,0,0,1,7.76-.56C254.91,26.08,256.6,26.34,257.87,27.51Z"/><path class="cls-10" d="M268.42,21.21c.36-.09.52.07.52.49v4.64h3c.35,0,.55.17.55.49v2.6c0,.32-.2.48-.55.48h-3v8.87c0,1.33.45,1.65,1.91,1.65h1.34c.35,0,.55.17.55.49v2.76a.56.56,0,0,1-.52.62,14.4,14.4,0,0,1-2.76.29,9.79,9.79,0,0,1-3-.29c-1.53-.43-2.15-1.43-2.28-3.9V29.91h-1.91c-.36,0-.52-.16-.52-.48v-2.6c0-.32.16-.49.52-.49h1.91v-3.6a.51.51,0,0,1,.46-.52Z"/><path class="cls-10" d="M289.72,28c1.3,1.42,1.62,3.5,1.62,7.37s-.55,6.2-1.62,7.43-3.31,1.82-6.66,1.82-5.58-.62-6.65-1.82-1.62-3.7-1.62-7.43.55-6.2,1.62-7.41,3.31-1.85,6.65-1.85C286.57,26.08,288.42,26.51,289.72,28Zm-9.48,3.27c-.42.66-.62,2-.62,4.1a8.91,8.91,0,0,0,.62,4.12c.42.65,1.36,1,2.82,1s2.41-.32,2.83-1a8.81,8.81,0,0,0,.65-4.12,8.62,8.62,0,0,0-.65-4.1c-.42-.68-1.37-1-2.83-1S280.66,30.56,280.24,31.24Z"/><path class="cls-10" d="M306.76,26.51c.36.09.52.25.52.51v2.47c0,.36-.19.52-.55.52h-5.84c-1.27,0-1.92.39-1.92,1.17v.32c0,.62.52,1.14,1.56,1.5l4.16,1.46c2.59.91,3.41,2.43,3.41,4.87v.52c0,3.54-2.41,4.74-6.92,4.74a61.46,61.46,0,0,1-6.72-.33c-.36,0-.55-.16-.55-.48V41.15c0-.33.19-.49.55-.49h6.66c1.72,0,2.24-.23,2.24-1.1v-.3c0-.64-.39-1-1.79-1.52l-4-1.43c-2.21-.75-3.31-2.4-3.31-4.93v-.62c0-3.35,2.46-4.68,7.37-4.68A28.22,28.22,0,0,1,306.76,26.51Z"/><path class="cls-10" d="M322.29,21.21c.35-.09.52.07.52.49v4.64h3c.36,0,.55.17.55.49v2.6c0,.32-.19.48-.55.48h-3v8.87c0,1.33.45,1.65,1.91,1.65h1.33c.36,0,.55.17.55.49v2.76a.56.56,0,0,1-.52.62,14.3,14.3,0,0,1-2.75.29,9.85,9.85,0,0,1-3.06-.29c-1.52-.43-2.14-1.43-2.27-3.9V29.91h-1.91c-.36,0-.52-.16-.52-.48v-2.6c0-.32.16-.49.52-.49H318v-3.6a.5.5,0,0,1,.46-.52Z"/><path class="cls-10" d="M339.33,26.44a.6.6,0,0,1,.52.65v2.66c0,.33-.19.49-.55.49h-3.05c-1.79,0-2.28.32-2.28,1.66v12c0,.35-.16.52-.48.52h-3.87c-.32,0-.48-.17-.48-.52V30.66a4.64,4.64,0,0,1,1.2-3.38,7.11,7.11,0,0,1,4.67-1.2A20.79,20.79,0,0,1,339.33,26.44Z"/><path class="cls-10" d="M354.49,27.45a5.12,5.12,0,0,1,1.66,4.22V42.9a1,1,0,0,1-.71,1,34,34,0,0,1-7.37.68c-2.73,0-4.09-.13-5.52-.88s-1.95-2.24-2-4.74c0-2.08.55-3.47,1.59-4.22a9.06,9.06,0,0,1,5.06-1.1h4.13V32.48c0-1.49-1-2.24-3.06-2.24h-5.87c-.36,0-.46-.1-.46-.49V27.09c0-.36.1-.42.46-.52a31.11,31.11,0,0,1,5.87-.49C351.31,26.08,353.39,26.54,354.49,27.45Zm-3.14,9.31h-3.74c-1.69,0-2.27.52-2.27,2s.68,2,2.76,2a12.15,12.15,0,0,0,3.25-.32Z"/><path class="cls-10" d="M374.36,27.51c1.3,1.17,1.63,3,1.63,6.36v10a.45.45,0,0,1-.52.52h-3.83c-.33,0-.49-.17-.49-.52v-8.8c0-2.44,0-3.47-.65-4.16s-1.13-.71-2.82-.71h-3V43.91c0,.35-.16.52-.48.52h-3.87c-.32,0-.48-.17-.48-.52V27.12c0-.39.16-.42.48-.48a39.61,39.61,0,0,1,7.76-.56C371.41,26.08,373.1,26.34,374.36,27.51Z"/><path class="cls-10" d="M391.83,26.51c.36.09.52.25.52.51v2.47c0,.36-.19.52-.55.52H386c-1.27,0-1.92.39-1.92,1.17v.32c0,.62.52,1.14,1.56,1.5l4.16,1.46c2.59.91,3.4,2.43,3.4,4.87v.52c0,3.54-2.4,4.74-6.91,4.74a61.46,61.46,0,0,1-6.72-.33c-.36,0-.55-.16-.55-.48V41.15c0-.33.19-.49.55-.49h6.65c1.73,0,2.24-.23,2.24-1.1v-.3c0-.64-.39-1-1.78-1.52l-4-1.43a4.69,4.69,0,0,1-3.32-4.93v-.62c0-3.35,2.47-4.68,7.37-4.68A28.26,28.26,0,0,1,391.83,26.51Z"/><path class="cls-10" d="M406.74,19.46a.57.57,0,0,1,.52.62v2.69c0,.36-.2.52-.56.52h-2.56c-1.33,0-1.82.23-1.82,1.27v1.72h4c.33,0,.46.19.39.55l-.48,2.73a.53.53,0,0,1-.56.45h-3.31v13.9c0,.35-.16.52-.49.52H398c-.32,0-.48-.17-.48-.52V30h-2.11c-.36,0-.56-.16-.56-.48V26.76c0-.32.2-.48.56-.48h2.11V23.71c0-1.94.61-3.21,1.78-3.83a7.75,7.75,0,0,1,3.93-.74A17.7,17.7,0,0,1,406.74,19.46Z"/><path class="cls-10" d="M422.55,28c1.3,1.42,1.62,3.5,1.62,7.37s-.55,6.2-1.62,7.43-3.31,1.82-6.66,1.82-5.58-.62-6.65-1.82-1.63-3.7-1.63-7.43.56-6.2,1.63-7.41,3.31-1.85,6.65-1.85C419.4,26.08,421.25,26.51,422.55,28Zm-9.48,3.27c-.42.66-.62,2-.62,4.1a8.91,8.91,0,0,0,.62,4.12c.42.65,1.36,1,2.82,1s2.41-.32,2.83-1a8.81,8.81,0,0,0,.65-4.12,8.62,8.62,0,0,0-.65-4.1c-.42-.68-1.37-1-2.83-1S413.49,30.56,413.07,31.24Z"/><path class="cls-10" d="M437.65,26.44a.61.61,0,0,1,.52.65v2.66c0,.33-.2.49-.56.49h-3.05c-1.78,0-2.27.32-2.27,1.66v12c0,.35-.16.52-.49.52h-3.86c-.32,0-.49-.17-.49-.52V30.66a4.64,4.64,0,0,1,1.2-3.38,7.14,7.14,0,0,1,4.68-1.2A20.79,20.79,0,0,1,437.65,26.44Z"/><path class="cls-10" d="M464,27.51c1,.94,1.53,2.76,1.53,5.46l0,10.94c0,.35-.17.52-.49.52h-3.83c-.33,0-.49-.17-.49-.52v-8.8c-.16-4.77-.29-4.74-3.08-4.87a16.68,16.68,0,0,0-2.63.19,11,11,0,0,1,.42,3.44l0,10c0,.35-.17.52-.46.52h-3.86c-.29,0-.46-.17-.46-.52V34c0-1.85-.09-2.73-.64-3.22s-1-.55-2.47-.55h-2.21V43.91c0,.35-.16.52-.49.52H441c-.32,0-.48-.17-.48-.52V27.12a.45.45,0,0,1,.42-.48,30.28,30.28,0,0,1,6.23-.56,13.7,13.7,0,0,1,5.81,1,15.68,15.68,0,0,1,5.65-1.07C461.22,26.05,463,26.54,464,27.51Z"/><path class="cls-10" d="M483.3,27.9c1.07,1.2,1.59,3.6,1.62,7.21v1c0,.64-.23.87-1,.87H473.69c0,1.43.26,2.37.75,2.79a4.62,4.62,0,0,0,2.92.65h5.74a.43.43,0,0,1,.49.49v2.69a.47.47,0,0,1-.45.52,32.52,32.52,0,0,1-6.21.46c-3.27,0-5.45-.62-6.52-1.85s-1.62-3.7-1.62-7.4.55-6.2,1.62-7.41,3.25-1.85,6.52-1.85S482.26,26.7,483.3,27.9Zm-9.64,5.94h6.42c0-2.82-.78-3.6-3.15-3.6S473.69,31,473.66,33.84Z"/><path class="cls-10" d="M511.48,27.51c1,.94,1.53,2.76,1.53,5.46l0,10.94c0,.35-.16.52-.48.52h-3.83c-.33,0-.49-.17-.49-.52v-8.8c-.16-4.77-.29-4.74-3.09-4.87a16.77,16.77,0,0,0-2.63.19,10.64,10.64,0,0,1,.43,3.44l0,10c0,.35-.16.52-.45.52h-3.86c-.3,0-.46-.17-.46-.52V34c0-1.85-.1-2.73-.65-3.22s-1-.55-2.46-.55h-2.21V43.91c0,.35-.17.52-.49.52h-3.83c-.33,0-.49-.17-.49-.52V27.12a.45.45,0,0,1,.42-.48,30.39,30.39,0,0,1,6.24-.56,13.73,13.73,0,0,1,5.81,1,15.64,15.64,0,0,1,5.65-1.07Q510,26.05,511.48,27.51Z"/><path class="cls-10" d="M531.16,28c1.3,1.42,1.62,3.5,1.62,7.37s-.55,6.2-1.62,7.43-3.31,1.82-6.66,1.82-5.58-.62-6.65-1.82-1.63-3.7-1.63-7.43.55-6.2,1.63-7.41,3.31-1.85,6.65-1.85C528,26.08,529.86,26.51,531.16,28Zm-9.48,3.27c-.42.66-.62,2-.62,4.1a8.91,8.91,0,0,0,.62,4.12c.42.65,1.36,1,2.82,1s2.4-.32,2.83-1a8.81,8.81,0,0,0,.65-4.12,8.62,8.62,0,0,0-.65-4.1c-.43-.68-1.37-1-2.83-1S522.1,30.56,521.68,31.24Z"/><path class="cls-10" d="M548.2,26.51c.36.09.52.25.52.51v2.47c0,.36-.19.52-.55.52h-5.84c-1.27,0-1.92.39-1.92,1.17v.32c0,.62.52,1.14,1.56,1.5l4.16,1.46c2.59.91,3.4,2.43,3.4,4.87v.52c0,3.54-2.4,4.74-6.91,4.74a61.46,61.46,0,0,1-6.72-.33c-.36,0-.55-.16-.55-.48V41.15c0-.33.19-.49.55-.49h6.65c1.73,0,2.25-.23,2.25-1.1v-.3c0-.64-.39-1-1.79-1.52l-4-1.43a4.69,4.69,0,0,1-3.32-4.93v-.62c0-3.35,2.47-4.68,7.37-4.68A28.26,28.26,0,0,1,548.2,26.51Z"/><path class="cls-11" d="M218,154.41a5.76,5.76,0,0,1-2.28.48,8.15,8.15,0,0,1-3.27-.63,7,7,0,0,1-2.44-1.74,7.94,7.94,0,0,1-1.53-2.6,9.67,9.67,0,0,1-.53-3.22,10,10,0,0,1,.53-3.29,8.18,8.18,0,0,1,1.53-2.65,7,7,0,0,1,2.44-1.77,8.15,8.15,0,0,1,3.27-.64,7.52,7.52,0,0,1,2.36.37,6.74,6.74,0,0,1,2.06,1.07,5.94,5.94,0,0,1,1.51,1.75,5.88,5.88,0,0,1,.73,2.39h-3.32a3.26,3.26,0,0,0-1.19-2,3.51,3.51,0,0,0-2.15-.67,4.07,4.07,0,0,0-2,.46,3.71,3.71,0,0,0-1.33,1.22,5.09,5.09,0,0,0-.74,1.73,8.4,8.4,0,0,0-.23,2,7.73,7.73,0,0,0,.23,1.93,5.11,5.11,0,0,0,.74,1.7,3.75,3.75,0,0,0,1.33,1.2,4,4,0,0,0,2,.46,3.39,3.39,0,0,0,3.76-3.41H216V146h6.64v8.54h-2.22l-.35-1.79A5.22,5.22,0,0,1,218,154.41Z"/><path class="cls-11" d="M225.3,143.41a8.18,8.18,0,0,1,1.53-2.65,7,7,0,0,1,2.45-1.77,8.67,8.67,0,0,1,6.54,0,7,7,0,0,1,2.43,1.77,7.84,7.84,0,0,1,1.53,2.65,10,10,0,0,1,.53,3.29,9.67,9.67,0,0,1-.53,3.22,7.61,7.61,0,0,1-1.53,2.6,6.93,6.93,0,0,1-2.43,1.74,8.8,8.8,0,0,1-6.54,0,6.92,6.92,0,0,1-2.45-1.74,7.94,7.94,0,0,1-1.53-2.6,9.67,9.67,0,0,1-.53-3.22A10,10,0,0,1,225.3,143.41Zm3.18,5.22a5.11,5.11,0,0,0,.74,1.7,3.75,3.75,0,0,0,1.33,1.2,4.53,4.53,0,0,0,4,0,3.75,3.75,0,0,0,1.33-1.2,5.11,5.11,0,0,0,.74-1.7,7.73,7.73,0,0,0,.23-1.93,8.4,8.4,0,0,0-.23-2,5.09,5.09,0,0,0-.74-1.73,3.71,3.71,0,0,0-1.33-1.22,4.53,4.53,0,0,0-4,0,3.71,3.71,0,0,0-1.33,1.22,5.09,5.09,0,0,0-.74,1.73,8.4,8.4,0,0,0-.23,2A7.73,7.73,0,0,0,228.48,148.63Z"/><path class="cls-11" d="M250.12,138.73a10,10,0,0,1,2,.2,4.45,4.45,0,0,1,1.6.65,3.12,3.12,0,0,1,1,1.21,4.28,4.28,0,0,1,.36,1.86,3.48,3.48,0,0,1-.54,2,4,4,0,0,1-1.6,1.3,3.87,3.87,0,0,1,2.18,1.48,4.87,4.87,0,0,1,.25,4.6,4.11,4.11,0,0,1-1.25,1.43,5.54,5.54,0,0,1-1.79.82,8.45,8.45,0,0,1-2.07.26h-7.66v-15.8Zm-.45,6.4a2.48,2.48,0,0,0,1.53-.45,1.66,1.66,0,0,0,.6-1.44,1.84,1.84,0,0,0-.2-.9,1.5,1.5,0,0,0-.53-.56,2.27,2.27,0,0,0-.77-.27,4.27,4.27,0,0,0-.89-.08h-3.26v3.7Zm.2,6.7a4.46,4.46,0,0,0,1-.1,2.1,2.1,0,0,0,.81-.33,1.58,1.58,0,0,0,.57-.63,2.18,2.18,0,0,0,.21-1,2,2,0,0,0-.69-1.74,3,3,0,0,0-1.81-.52h-3.79v4.34Z"/><path class="cls-11" d="M261.74,138.73v15.8h-3.48v-15.8Z"/><path class="cls-11" d="M276.61,138.73v2.92h-8.34V145h7.66v2.7h-7.66v3.87h8.52v2.92h-12v-15.8Z"/><path class="cls-11" d="M287.66,138.73a5.07,5.07,0,0,1,1.91.34A4.32,4.32,0,0,1,291,140a4,4,0,0,1,.93,1.39,4.28,4.28,0,0,1,.32,1.69,4.75,4.75,0,0,1-.58,2.41,3.69,3.69,0,0,1-1.92,1.55v0a2.48,2.48,0,0,1,1.06.54,3,3,0,0,1,.69.86,3.88,3.88,0,0,1,.39,1.1,9.45,9.45,0,0,1,.16,1.19c0,.25,0,.55.05.89s0,.68.07,1a7.41,7.41,0,0,0,.18,1,2.16,2.16,0,0,0,.37.81h-3.48a6,6,0,0,1-.35-1.79c-.05-.69-.11-1.36-.2-2a3.2,3.2,0,0,0-.75-1.82,2.61,2.61,0,0,0-1.88-.57h-3.48v6.17h-3.48v-15.8Zm-1.24,7.15a2.66,2.66,0,0,0,1.79-.53,2.21,2.21,0,0,0,.6-1.73,2.1,2.1,0,0,0-.6-1.67,2.66,2.66,0,0,0-1.79-.52h-3.81v4.45Z"/><path class="cls-11" d="M298.57,138.73l6.59,10.6h0v-10.6h3.25v15.8H305L298.41,144h0v10.58h-3.25v-15.8Z"/><path class="cls-11" d="M311.36,143.41a8.18,8.18,0,0,1,1.53-2.65,7,7,0,0,1,2.45-1.77,8.67,8.67,0,0,1,6.54,0,7,7,0,0,1,2.43,1.77,7.84,7.84,0,0,1,1.53,2.65,10,10,0,0,1,.53,3.29,9.67,9.67,0,0,1-.53,3.22,7.61,7.61,0,0,1-1.53,2.6,6.93,6.93,0,0,1-2.43,1.74,8.8,8.8,0,0,1-6.54,0,6.92,6.92,0,0,1-2.45-1.74,7.94,7.94,0,0,1-1.53-2.6,9.67,9.67,0,0,1-.53-3.22A10,10,0,0,1,311.36,143.41Zm3.18,5.22a5.11,5.11,0,0,0,.74,1.7,3.75,3.75,0,0,0,1.33,1.2,4.53,4.53,0,0,0,4,0,3.75,3.75,0,0,0,1.33-1.2,5.11,5.11,0,0,0,.74-1.7,7.73,7.73,0,0,0,.23-1.93,8.4,8.4,0,0,0-.23-2,5.09,5.09,0,0,0-.74-1.73,3.71,3.71,0,0,0-1.33-1.22,4.53,4.53,0,0,0-4,0,3.71,3.71,0,0,0-1.33,1.22,5.09,5.09,0,0,0-.74,1.73,8.4,8.4,0,0,0-.23,2A7.73,7.73,0,0,0,314.54,148.63Z"/><path class="cls-11" d="M346.71,138.73v2.92h-8.34V145H346v2.7h-7.66v3.87h8.52v2.92h-12v-15.8Z"/><path class="cls-11" d="M351.89,150.64a2.39,2.39,0,0,0,.77.89,3.15,3.15,0,0,0,1.11.51,5.33,5.33,0,0,0,1.33.17,7.31,7.31,0,0,0,1-.08,3.34,3.34,0,0,0,1-.3,2.23,2.23,0,0,0,.78-.61,1.53,1.53,0,0,0,.31-1,1.39,1.39,0,0,0-.41-1,3.16,3.16,0,0,0-1.08-.67,11.16,11.16,0,0,0-1.5-.46c-.56-.13-1.13-.28-1.71-.44a14.35,14.35,0,0,1-1.72-.55,6,6,0,0,1-1.51-.83,3.78,3.78,0,0,1-1.07-1.27,3.89,3.89,0,0,1-.41-1.85,4.1,4.1,0,0,1,.52-2.11,4.63,4.63,0,0,1,1.36-1.49,5.88,5.88,0,0,1,1.91-.89,8.08,8.08,0,0,1,2.12-.29,9.76,9.76,0,0,1,2.38.28,5.75,5.75,0,0,1,2,.9,4.53,4.53,0,0,1,1.4,1.58,4.8,4.8,0,0,1,.52,2.33h-3.36a2.79,2.79,0,0,0-.3-1.17,2,2,0,0,0-.68-.73,2.92,2.92,0,0,0-1-.38,6.23,6.23,0,0,0-1.18-.11,4.09,4.09,0,0,0-.85.09,2.22,2.22,0,0,0-.76.31,1.84,1.84,0,0,0-.56.55,1.51,1.51,0,0,0-.22.85,1.39,1.39,0,0,0,.17.75,1.58,1.58,0,0,0,.7.53,10.24,10.24,0,0,0,1.44.49l2.4.62c.29.06.7.16,1.23.32a5.81,5.81,0,0,1,1.56.74,4.83,4.83,0,0,1,1.34,1.36,3.92,3.92,0,0,1,.56,2.18,4.83,4.83,0,0,1-.42,2,4.42,4.42,0,0,1-1.25,1.61,6,6,0,0,1-2.06,1,9.76,9.76,0,0,1-2.84.38,10.22,10.22,0,0,1-2.54-.32,6.56,6.56,0,0,1-2.17-1,5.06,5.06,0,0,1-1.49-1.75,5.15,5.15,0,0,1-.53-2.52h3.36A2.93,2.93,0,0,0,351.89,150.64Z"/><path class="cls-11" d="M362.36,141.65v-2.92h12.95v2.92h-4.74v12.88H367.1V141.65Z"/><path class="cls-11" d="M383,138.73l5.91,15.8h-3.61L384.08,151h-5.91l-1.24,3.52h-3.5l6-15.8Zm.2,9.69-2-5.8h-.05l-2.06,5.8Z"/><path class="cls-11" d="M387,141.65v-2.92h12.94v2.92h-4.73v12.88h-3.48V141.65Z"/><path class="cls-11" d="M407.58,138.73l5.91,15.8h-3.6l-1.2-3.52h-5.91l-1.24,3.52H398l6-15.8Zm.2,9.69-2-5.8h0l-2.06,5.8Z"/><path class="cls-11" d="M418.34,138.73v12.88H426v2.92H414.86v-15.8Z"/><path class="cls-11" d="M433.75,142.52a5.77,5.77,0,0,1,1.06-2,4.85,4.85,0,0,1,1.78-1.33,6.55,6.55,0,0,1,4.49-.14,5.23,5.23,0,0,1,1.7.95,4.58,4.58,0,0,1,1.59,3.57,4.91,4.91,0,0,1-.37,2,5.49,5.49,0,0,1-1,1.49,8.21,8.21,0,0,1-1.41,1.19l-1.58,1c-.53.35-1.05.72-1.55,1.12a7.32,7.32,0,0,0-1.33,1.39h7.33v2.7H433.08a6.37,6.37,0,0,1,.39-2.34,6.2,6.2,0,0,1,1-1.78,9.1,9.1,0,0,1,1.56-1.46q.9-.66,1.89-1.35c.34-.23.7-.47,1.09-.71a8.59,8.59,0,0,0,1.05-.81,4.51,4.51,0,0,0,.8-1,2.51,2.51,0,0,0,.32-1.26,2.32,2.32,0,0,0-.66-1.76,2.29,2.29,0,0,0-1.67-.63,2.08,2.08,0,0,0-1.16.32,2.28,2.28,0,0,0-.76.84,3.93,3.93,0,0,0-.41,1.15,6.69,6.69,0,0,0-.12,1.25h-3A7.35,7.35,0,0,1,433.75,142.52Z"/><path class="cls-11" d="M445.84,142.92a6.83,6.83,0,0,1,1.23-2.46,4.29,4.29,0,0,1,1.81-1.33,5.86,5.86,0,0,1,2.18-.4,6,6,0,0,1,2.2.4,4.35,4.35,0,0,1,1.81,1.33,6.53,6.53,0,0,1,1.24,2.46,13.7,13.7,0,0,1,.46,3.8,14.17,14.17,0,0,1-.46,3.88,6.6,6.6,0,0,1-1.24,2.49,4.44,4.44,0,0,1-1.81,1.33,6,6,0,0,1-2.2.4,5.86,5.86,0,0,1-2.18-.4,4.37,4.37,0,0,1-1.81-1.33,6.9,6.9,0,0,1-1.23-2.49,14.21,14.21,0,0,1-.45-3.88A13.74,13.74,0,0,1,445.84,142.92Zm2.74,5.4a9,9,0,0,0,.27,1.82,4.09,4.09,0,0,0,.74,1.49,1.77,1.77,0,0,0,1.47.62,1.83,1.83,0,0,0,1.49-.62,3.68,3.68,0,0,0,.75-1.49,8.33,8.33,0,0,0,.28-1.82c0-.62,0-1.16,0-1.6,0-.27,0-.59,0-1a9.51,9.51,0,0,0-.09-1.17,9.78,9.78,0,0,0-.22-1.18,3.51,3.51,0,0,0-.43-1,2.28,2.28,0,0,0-.73-.75,1.88,1.88,0,0,0-1.08-.29,1.85,1.85,0,0,0-1.08.29,2.32,2.32,0,0,0-.71.75,4.53,4.53,0,0,0-.43,1,9.78,9.78,0,0,0-.22,1.18c0,.4-.07.79-.08,1.17s0,.69,0,1C448.53,147.16,448.55,147.7,448.58,148.32Z"/><path class="cls-11" d="M462.77,154.53V144.48h-3.9v-2.36a7.44,7.44,0,0,0,1.58-.13,3.94,3.94,0,0,0,1.38-.51,3.33,3.33,0,0,0,1-1,3.44,3.44,0,0,0,.56-1.48h2.5v15.49Z"/><path class="cls-11" d="M471,141.12a4.53,4.53,0,0,1,1.21-1.33,5.61,5.61,0,0,1,1.67-.8,7.1,7.1,0,0,1,1.88-.26,6.08,6.08,0,0,1,2.44.44,5.08,5.08,0,0,1,1.6,1.07,3.89,3.89,0,0,1,1.14,2.65,3.53,3.53,0,0,1-.56,2,3.11,3.11,0,0,1-1.69,1.24v.05a3.51,3.51,0,0,1,2.14,1.31,4.05,4.05,0,0,1,.76,2.47,4.41,4.41,0,0,1-.5,2.15,4.47,4.47,0,0,1-1.32,1.51,6.16,6.16,0,0,1-1.86.89,7.59,7.59,0,0,1-2.12.3,8.25,8.25,0,0,1-2.18-.28,5.54,5.54,0,0,1-1.89-.87,4.53,4.53,0,0,1-1.32-1.5,4.39,4.39,0,0,1-.5-2.18,3.93,3.93,0,0,1,.76-2.47,3.66,3.66,0,0,1,2.16-1.33v-.05a2.81,2.81,0,0,1-1.7-1.17,3.49,3.49,0,0,1-.58-2A3.57,3.57,0,0,1,471,141.12Zm2.26,9.81a2.61,2.61,0,0,0,.59.82,2.56,2.56,0,0,0,.87.54,3.21,3.21,0,0,0,1.07.18,3,3,0,0,0,1.05-.18,2.87,2.87,0,0,0,.84-.54,2.26,2.26,0,0,0,.56-.82,2.68,2.68,0,0,0,.2-1.07,2.33,2.33,0,0,0-.21-1,2.39,2.39,0,0,0-.57-.79,2.78,2.78,0,0,0-.84-.51,2.9,2.9,0,0,0-1-.18,3,3,0,0,0-1.95.63,2.21,2.21,0,0,0-.8,1.83A2.59,2.59,0,0,0,473.21,150.93Zm.84-6.17a2.73,2.73,0,0,0,1.66.52,2.57,2.57,0,0,0,1.66-.52,1.8,1.8,0,0,0,.67-1.52,2.82,2.82,0,0,0-.09-.67,1.89,1.89,0,0,0-.34-.7,2,2,0,0,0-.71-.55,2.69,2.69,0,0,0-1.19-.22,2.63,2.63,0,0,0-.89.14,2.59,2.59,0,0,0-.77.41,2,2,0,0,0-.52.66,2.27,2.27,0,0,0-.18.93A1.77,1.77,0,0,0,474.05,144.76Z"/><path class="cls-11" d="M489.78,146.84a1.88,1.88,0,0,1,2-.4,2,2,0,0,1,1,1,1.67,1.67,0,0,1,.16.74,1.52,1.52,0,0,1-.16.69,2,2,0,0,1-.4.59,1.69,1.69,0,0,1-.57.42,1.57,1.57,0,0,1-.71.16,2,2,0,0,1-.74-.14,1.91,1.91,0,0,1-.6-.4,1.94,1.94,0,0,1-.41-.6,1.86,1.86,0,0,1,.41-2.06Z"/><path class="cls-11" d="M501.43,142.52a5.79,5.79,0,0,1,1.07-2,4.77,4.77,0,0,1,1.78-1.33,6.55,6.55,0,0,1,4.49-.14,5.33,5.33,0,0,1,1.7.95,4.58,4.58,0,0,1,1.59,3.57,4.9,4.9,0,0,1-.38,2,5.24,5.24,0,0,1-1,1.49,9.05,9.05,0,0,1-1.41,1.19l-1.58,1c-.53.35-1.05.72-1.55,1.12a7,7,0,0,0-1.33,1.39h7.33v2.7H500.77a6.37,6.37,0,0,1,.39-2.34,6.2,6.2,0,0,1,1-1.78,9.1,9.1,0,0,1,1.56-1.46q.9-.66,1.89-1.35c.34-.23.7-.47,1.09-.71a8.59,8.59,0,0,0,1.05-.81,4.51,4.51,0,0,0,.8-1,2.51,2.51,0,0,0,.32-1.26,2.32,2.32,0,0,0-.66-1.76,2.29,2.29,0,0,0-1.67-.63,2.05,2.05,0,0,0-1.16.32,2.28,2.28,0,0,0-.76.84,3.66,3.66,0,0,0-.41,1.15,6.72,6.72,0,0,0-.13,1.25h-3A7.61,7.61,0,0,1,501.43,142.52Z"/><path class="cls-11" d="M513.53,142.92a6.67,6.67,0,0,1,1.23-2.46,4.32,4.32,0,0,1,1.8-1.33,6.22,6.22,0,0,1,4.39,0,4.35,4.35,0,0,1,1.81,1.33,6.53,6.53,0,0,1,1.24,2.46,13.7,13.7,0,0,1,.46,3.8,14.17,14.17,0,0,1-.46,3.88,6.6,6.6,0,0,1-1.24,2.49,4.44,4.44,0,0,1-1.81,1.33,6.22,6.22,0,0,1-4.39,0,4.41,4.41,0,0,1-1.8-1.33,6.74,6.74,0,0,1-1.23-2.49,14.21,14.21,0,0,1-.45-3.88A13.74,13.74,0,0,1,513.53,142.92Zm2.74,5.4a8.33,8.33,0,0,0,.27,1.82,3.94,3.94,0,0,0,.74,1.49,1.77,1.77,0,0,0,1.47.62,1.83,1.83,0,0,0,1.49-.62,3.68,3.68,0,0,0,.75-1.49,8.33,8.33,0,0,0,.28-1.82c0-.62,0-1.16,0-1.6,0-.27,0-.59,0-1s0-.77-.09-1.17a9.78,9.78,0,0,0-.22-1.18,3.8,3.8,0,0,0-.43-1,2.38,2.38,0,0,0-.73-.75,1.9,1.9,0,0,0-1.08-.29,1.85,1.85,0,0,0-1.08.29,2.32,2.32,0,0,0-.71.75,4.13,4.13,0,0,0-.43,1,8.15,8.15,0,0,0-.22,1.18c0,.4-.07.79-.08,1.17s0,.69,0,1C516.22,147.16,516.24,147.7,516.27,148.32Z"/><path class="cls-11" d="M526.05,142.52a5.94,5.94,0,0,1,1.06-2,4.85,4.85,0,0,1,1.78-1.33,6.58,6.58,0,0,1,4.5-.14,5.28,5.28,0,0,1,1.69.95,4.53,4.53,0,0,1,1.16,1.53,4.66,4.66,0,0,1,.43,2,4.91,4.91,0,0,1-.37,2,5.27,5.27,0,0,1-1,1.49,8.54,8.54,0,0,1-1.4,1.19l-1.59,1c-.53.35-1,.72-1.55,1.12a7,7,0,0,0-1.32,1.39h7.32v2.7H525.39a6.38,6.38,0,0,1,.38-2.34,6.2,6.2,0,0,1,1.05-1.78,9.56,9.56,0,0,1,1.57-1.46q.89-.66,1.89-1.35l1.08-.71a7.29,7.29,0,0,0,1-.81,4.24,4.24,0,0,0,.8-1,2.51,2.51,0,0,0,.32-1.26,2.36,2.36,0,0,0-.65-1.76,2.31,2.31,0,0,0-1.67-.63,2,2,0,0,0-1.16.32,2.31,2.31,0,0,0-.77.84,3.93,3.93,0,0,0-.41,1.15,6.69,6.69,0,0,0-.12,1.25h-3A7.35,7.35,0,0,1,526.05,142.52Z"/><path class="cls-11" d="M537.58,151v-2.88l6.73-9h2.81v9.32h2.06V151h-2.06v3.58h-3V151Zm6.49-8-4,5.38h4.07V143Z"/></g></g></svg>