<svg xmlns="http://www.w3.org/2000/svg" viewBox="0 0 349.99 390.61"><defs><style>.cls-1{fill:#005cb9;}.cls-2{fill:#76bc21;}.cls-3{fill:#ffcd00;}.cls-4{fill:#dd8797;}.cls-5{fill:#00a7e1;}.cls-6{fill:#0075c9;}.cls-7{fill:#8f4899;}.cls-8{fill:#ff8300;}.cls-9{fill:#007565;}.cls-10{fill:#00a887;}.cls-11{fill:#002169;}.cls-12{fill:#73308a;}.cls-13{fill:#b4008d;}.cls-14{fill:#ff595a;}</style></defs><title>Recurso 1</title><g id="Capa_2" data-name="Capa 2"><g id="Capa_1-2" data-name="Capa 1"><path class="cls-1" d="M46.87,357.54a7.11,7.11,0,0,1-2.8.59,9.88,9.88,0,0,1-4-.78,8.54,8.54,0,0,1-3-2.13A9.52,9.52,0,0,1,35.2,352a11.86,11.86,0,0,1-.65-4,12.21,12.21,0,0,1,.65-4,9.8,9.8,0,0,1,1.87-3.24,8.51,8.51,0,0,1,3-2.17,9.72,9.72,0,0,1,4-.79,9.34,9.34,0,0,1,2.89.45,7.91,7.91,0,0,1,2.53,1.31,7.29,7.29,0,0,1,1.86,2.15,7.19,7.19,0,0,1,.89,2.93H48.17a4.1,4.1,0,0,0-1.46-2.45,4.29,4.29,0,0,0-2.64-.81,5,5,0,0,0-2.44.56A4.46,4.46,0,0,0,40,343.49a6.39,6.39,0,0,0-.91,2.13,10.57,10.57,0,0,0-.29,2.47,9.86,9.86,0,0,0,.29,2.37,6.39,6.39,0,0,0,.91,2.08A4.62,4.62,0,0,0,41.63,354a5,5,0,0,0,2.44.55,4.57,4.57,0,0,0,3.27-1.07,4.66,4.66,0,0,0,1.35-3.11H44.4v-3.17h8.14v10.47H49.83l-.44-2.19A6.35,6.35,0,0,1,46.87,357.54Z"/><path class="cls-1" d="M57,344.06a9.63,9.63,0,0,1,1.87-3.24,8.34,8.34,0,0,1,3-2.17,10.57,10.57,0,0,1,8,0,8.44,8.44,0,0,1,3,2.17,9.46,9.46,0,0,1,1.87,3.24,12,12,0,0,1,.66,4,11.61,11.61,0,0,1-.66,4,9.19,9.19,0,0,1-1.87,3.18,8.46,8.46,0,0,1-3,2.13,10.7,10.7,0,0,1-8,0,8.36,8.36,0,0,1-3-2.13A9.35,9.35,0,0,1,57,352a11.61,11.61,0,0,1-.65-4A12,12,0,0,1,57,344.06Zm3.89,6.4a6.39,6.39,0,0,0,.91,2.08A4.74,4.74,0,0,0,63.45,354a5.69,5.69,0,0,0,4.88,0A4.74,4.74,0,0,0,70,352.54a6.39,6.39,0,0,0,.91-2.08,9.85,9.85,0,0,0,.28-2.37,10.57,10.57,0,0,0-.28-2.47,6.39,6.39,0,0,0-.91-2.13A4.58,4.58,0,0,0,68.33,342a5.6,5.6,0,0,0-4.88,0,4.58,4.58,0,0,0-1.63,1.49,6.39,6.39,0,0,0-.91,2.13,10.57,10.57,0,0,0-.28,2.47A9.85,9.85,0,0,0,60.91,350.46Z"/><path class="cls-1" d="M88.66,338.32a12.25,12.25,0,0,1,2.52.24,5.55,5.55,0,0,1,1.95.8,3.8,3.8,0,0,1,1.27,1.48,5.36,5.36,0,0,1,.44,2.28,4.25,4.25,0,0,1-.66,2.44,4.85,4.85,0,0,1-2,1.61,4.58,4.58,0,0,1,2.67,1.8,5.89,5.89,0,0,1,.32,5.64,4.92,4.92,0,0,1-1.54,1.75,6.66,6.66,0,0,1-2.19,1,10.28,10.28,0,0,1-2.54.32H79.54V338.32Zm-.55,7.84a3.1,3.1,0,0,0,1.88-.54,2.07,2.07,0,0,0,.73-1.77,2.17,2.17,0,0,0-.25-1.11,1.85,1.85,0,0,0-.65-.68,2.94,2.94,0,0,0-.93-.34,6.62,6.62,0,0,0-1.1-.09h-4v4.53Zm.25,8.22a5.79,5.79,0,0,0,1.19-.12,2.94,2.94,0,0,0,1-.41,2,2,0,0,0,.69-.77,2.67,2.67,0,0,0,.26-1.25,2.5,2.5,0,0,0-.85-2.13,3.61,3.61,0,0,0-2.22-.64H83.8v5.32Z"/><path class="cls-1" d="M104.12,338.32v19.37H99.86V338.32Z"/><path class="cls-1" d="M123.58,338.32v3.58H113.35v4.15h9.39v3.31h-9.39v4.75H123.8v3.58H109.09V338.32Z"/><path class="cls-1" d="M138.34,338.32a6.27,6.27,0,0,1,2.35.42,5.45,5.45,0,0,1,1.79,1.15,5.29,5.29,0,0,1,1.14,1.7,5.45,5.45,0,0,1,.39,2.07,5.82,5.82,0,0,1-.72,3,4.5,4.5,0,0,1-2.35,1.9v.06a3.24,3.24,0,0,1,1.31.66,3.79,3.79,0,0,1,.84,1.06,5.18,5.18,0,0,1,.47,1.34,12.39,12.39,0,0,1,.21,1.47c0,.31,0,.67,0,1.08s.05.84.1,1.28a7.89,7.89,0,0,0,.21,1.23,2.82,2.82,0,0,0,.45,1h-4.26a7.15,7.15,0,0,1-.43-2.19c-.06-.85-.14-1.67-.25-2.45a3.81,3.81,0,0,0-.92-2.22,3.18,3.18,0,0,0-2.31-.71h-4.26v7.57h-4.26V338.32Zm-1.52,8.76a3.2,3.2,0,0,0,2.2-.65,2.69,2.69,0,0,0,.73-2.11,2.57,2.57,0,0,0-.73-2.05,3.25,3.25,0,0,0-2.2-.64h-4.67v5.45Z"/><path class="cls-1" d="M152.94,338.32l8.08,13h.06v-13h4v19.37h-4.26l-8.06-13h-.06v13h-4V338.32Z"/><path class="cls-1" d="M169.84,344.06a9.8,9.8,0,0,1,1.87-3.24,8.51,8.51,0,0,1,3-2.17,10.57,10.57,0,0,1,8,0,8.48,8.48,0,0,1,3,2.17,9.8,9.8,0,0,1,1.87,3.24,12.21,12.21,0,0,1,.65,4,11.86,11.86,0,0,1-.65,4,9.52,9.52,0,0,1-1.87,3.18,8.5,8.5,0,0,1-3,2.13,10.7,10.7,0,0,1-8,0,8.54,8.54,0,0,1-3-2.13,9.52,9.52,0,0,1-1.87-3.18,11.86,11.86,0,0,1-.65-4A12.21,12.21,0,0,1,169.84,344.06Zm3.9,6.4a6.6,6.6,0,0,0,.9,2.08,4.74,4.74,0,0,0,1.63,1.48,5.71,5.71,0,0,0,4.89,0,4.62,4.62,0,0,0,1.62-1.48,6.39,6.39,0,0,0,.91-2.08,9.86,9.86,0,0,0,.29-2.37,10.57,10.57,0,0,0-.29-2.47,6.39,6.39,0,0,0-.91-2.13,4.46,4.46,0,0,0-1.62-1.49,5.62,5.62,0,0,0-4.89,0,4.58,4.58,0,0,0-1.63,1.49,6.58,6.58,0,0,0-.9,2.13,10.57,10.57,0,0,0-.29,2.47A9.86,9.86,0,0,0,173.74,350.46Z"/><path class="cls-1" d="M215.62,338.32v3.58H205.39v4.15h9.39v3.31h-9.39v4.75h10.44v3.58h-14.7V338.32Z"/><path class="cls-1" d="M223.19,352.92a3.12,3.12,0,0,0,.93,1.1,4,4,0,0,0,1.38.62,6.2,6.2,0,0,0,1.62.2,8.88,8.88,0,0,0,1.22-.09,4.18,4.18,0,0,0,1.23-.37,2.74,2.74,0,0,0,.94-.74,1.85,1.85,0,0,0,.38-1.21,1.69,1.69,0,0,0-.5-1.28,4.07,4.07,0,0,0-1.31-.81,12.67,12.67,0,0,0-1.85-.57c-.69-.16-1.38-.34-2.09-.54a16.71,16.71,0,0,1-2.11-.67,7.31,7.31,0,0,1-1.85-1,4.92,4.92,0,0,1-1.32-1.57,4.75,4.75,0,0,1-.5-2.26,5.1,5.1,0,0,1,.64-2.59,5.63,5.63,0,0,1,1.67-1.83,7.34,7.34,0,0,1,2.33-1.09,10.18,10.18,0,0,1,2.61-.35,12.08,12.08,0,0,1,2.91.34,7.12,7.12,0,0,1,2.49,1.1,5.55,5.55,0,0,1,1.72,1.94,6,6,0,0,1,.64,2.86h-4.13a3.46,3.46,0,0,0-.36-1.44,2.38,2.38,0,0,0-.83-.89,3.65,3.65,0,0,0-1.18-.47,7.31,7.31,0,0,0-1.45-.13,5.07,5.07,0,0,0-1,.11,2.7,2.7,0,0,0-.94.38,2.24,2.24,0,0,0-.69.68,1.81,1.81,0,0,0-.27,1,1.79,1.79,0,0,0,.21.92,2,2,0,0,0,.86.65,10.67,10.67,0,0,0,1.76.6l3,.76q.54.1,1.5.39a7.27,7.27,0,0,1,1.92.91,5.81,5.81,0,0,1,1.64,1.67,4.75,4.75,0,0,1,.69,2.67,5.82,5.82,0,0,1-.52,2.47,5.29,5.29,0,0,1-1.53,2,7.48,7.48,0,0,1-2.52,1.29,12.25,12.25,0,0,1-3.49.46,12,12,0,0,1-3.11-.4,7.83,7.83,0,0,1-2.66-1.23,6.11,6.11,0,0,1-1.83-2.14,6.42,6.42,0,0,1-.65-3.1h4.13A3.51,3.51,0,0,0,223.19,352.92Z"/><path class="cls-1" d="M237.24,341.9v-3.58h15.88v3.58h-5.81v15.79h-4.26V341.9Z"/><path class="cls-1" d="M263.73,338.32,271,357.69h-4.42l-1.47-4.31h-7.24l-1.52,4.31H252l7.33-19.37ZM264,350.2l-2.44-7.1h-.06L259,350.2Z"/><path class="cls-1" d="M269.86,341.9v-3.58h15.87v3.58h-5.8v15.79h-4.26V341.9Z"/><path class="cls-1" d="M296.34,338.32l7.25,19.37h-4.43l-1.46-4.31h-7.25l-1.52,4.31h-4.28L292,338.32Zm.25,11.88-2.45-7.1h-.05l-2.52,7.1Z"/><path class="cls-1" d="M310.75,338.32v15.79h9.44v3.58h-13.7V338.32Z"/><path class="cls-1" d="M100.73,375.53a7.06,7.06,0,0,1,1.3-2.44,6,6,0,0,1,2.19-1.63,7.5,7.5,0,0,1,3-.58,7.65,7.65,0,0,1,2.49.41,6.56,6.56,0,0,1,2.07,1.16,5.69,5.69,0,0,1,1.43,1.88,5.75,5.75,0,0,1,.52,2.49,6,6,0,0,1-.46,2.47,6.17,6.17,0,0,1-1.22,1.83,10.2,10.2,0,0,1-1.72,1.46l-1.94,1.28c-.65.43-1.29.89-1.9,1.37a8.83,8.83,0,0,0-1.63,1.71h9v3.31H99.92a7.41,7.41,0,0,1,1.76-5.06,11.2,11.2,0,0,1,1.91-1.77c.74-.55,1.51-1.1,2.32-1.66.42-.29.86-.58,1.33-.88a9.17,9.17,0,0,0,1.29-1,5.21,5.21,0,0,0,1-1.22,3.05,3.05,0,0,0,.39-1.55,2.89,2.89,0,0,0-.8-2.16,2.85,2.85,0,0,0-2-.77,2.49,2.49,0,0,0-1.42.39,3,3,0,0,0-.94,1,4.81,4.81,0,0,0-.5,1.41,7.93,7.93,0,0,0-.15,1.53h-3.69A9,9,0,0,1,100.73,375.53Z"/><path class="cls-1" d="M116.78,376a8.3,8.3,0,0,1,1.51-3,5.34,5.34,0,0,1,2.21-1.63,7.23,7.23,0,0,1,2.67-.49,7.31,7.31,0,0,1,2.7.49A5.53,5.53,0,0,1,128.1,373a8.46,8.46,0,0,1,1.52,3,16.77,16.77,0,0,1,.55,4.66,17.39,17.39,0,0,1-.55,4.76,8.45,8.45,0,0,1-1.52,3.05,5.62,5.62,0,0,1-2.23,1.63,7.53,7.53,0,0,1-2.7.49,7.44,7.44,0,0,1-2.67-.49,5.43,5.43,0,0,1-2.21-1.63,8.29,8.29,0,0,1-1.51-3.05,17.35,17.35,0,0,1-.56-4.76A16.73,16.73,0,0,1,116.78,376Zm3.35,6.62a10.91,10.91,0,0,0,.34,2.23,4.77,4.77,0,0,0,.91,1.83,2.18,2.18,0,0,0,1.79.76,2.23,2.23,0,0,0,1.83-.76,4.65,4.65,0,0,0,.92-1.83,9.69,9.69,0,0,0,.34-2.23c0-.77.06-1.42.06-2,0-.33,0-.72,0-1.18a11.73,11.73,0,0,0-.1-1.43,14.27,14.27,0,0,0-.28-1.45,4.36,4.36,0,0,0-.52-1.29,2.93,2.93,0,0,0-.9-.92,2.68,2.68,0,0,0-2.65,0,2.71,2.71,0,0,0-.86.92,4.66,4.66,0,0,0-.53,1.29,9,9,0,0,0-.27,1.45,14.13,14.13,0,0,0-.1,1.43c0,.46,0,.85,0,1.18C120.08,381.22,120.1,381.87,120.13,382.64Z"/><path class="cls-1" d="M138.75,390.25V377.94H134V375a8.82,8.82,0,0,0,1.94-.15,4.9,4.9,0,0,0,1.68-.62,4.05,4.05,0,0,0,1.26-1.18,4.17,4.17,0,0,0,.68-1.82h3.07v19Z"/><path class="cls-1" d="M150,373.81a5.25,5.25,0,0,1,1.48-1.63,6.41,6.41,0,0,1,2-1,8.27,8.27,0,0,1,2.31-.33,7.4,7.4,0,0,1,3,.54,6.29,6.29,0,0,1,2,1.32,4.72,4.72,0,0,1,1.07,1.65,4.61,4.61,0,0,1,.33,1.59,4.41,4.41,0,0,1-.69,2.47,3.83,3.83,0,0,1-2.08,1.52v0a4.35,4.35,0,0,1,2.63,1.62,4.88,4.88,0,0,1,.93,3,5.46,5.46,0,0,1-.61,2.63,5.63,5.63,0,0,1-1.62,1.84,7.1,7.1,0,0,1-2.28,1.1,9.18,9.18,0,0,1-2.6.37,10.75,10.75,0,0,1-2.68-.34,7,7,0,0,1-2.3-1.07,5.58,5.58,0,0,1-1.63-1.85,5.42,5.42,0,0,1-.61-2.66,4.83,4.83,0,0,1,.94-3,4.56,4.56,0,0,1,2.64-1.63v0a3.5,3.5,0,0,1-2.09-1.44,4.72,4.72,0,0,1-.13-4.72Zm2.76,12a3.07,3.07,0,0,0,1.79,1.67,3.88,3.88,0,0,0,1.31.23,3.57,3.57,0,0,0,1.29-.23,3.16,3.16,0,0,0,1-.65,2.79,2.79,0,0,0,.69-1,3.46,3.46,0,0,0,.24-1.3,3,3,0,0,0-.25-1.24,3.07,3.07,0,0,0-1.74-1.58,3.48,3.48,0,0,0-1.26-.22,3.76,3.76,0,0,0-2.39.77,2.71,2.71,0,0,0-1,2.24A3.19,3.19,0,0,0,152.77,385.83Zm1-7.56a3.28,3.28,0,0,0,2,.64,3.21,3.21,0,0,0,2-.64,2.21,2.21,0,0,0,.81-1.85,3.65,3.65,0,0,0-.11-.83,2.29,2.29,0,0,0-.42-.86,2.41,2.41,0,0,0-.87-.67,3.17,3.17,0,0,0-1.45-.28,3.38,3.38,0,0,0-1.1.18,3.19,3.19,0,0,0-.93.5,2.15,2.15,0,0,0-.64.82,2.52,2.52,0,0,0-.23,1.14A2.14,2.14,0,0,0,153.81,378.27Z"/><path class="cls-1" d="M175.53,380.83a2.23,2.23,0,0,1,1.61-.67,2.12,2.12,0,0,1,.87.18,2.37,2.37,0,0,1,1.22,1.22,2.12,2.12,0,0,1,.19.91,1.91,1.91,0,0,1-.19.84,3,3,0,0,1-.49.73,2.24,2.24,0,0,1-.7.52,2.16,2.16,0,0,1-.87.19,2.27,2.27,0,0,1-.91-.18,2.18,2.18,0,0,1-.73-.49,2.52,2.52,0,0,1-.51-.73,2.25,2.25,0,0,1-.19-.88A2.16,2.16,0,0,1,175.53,380.83Z"/><path class="cls-1" d="M192.26,375.53a6.9,6.9,0,0,1,1.3-2.44,6,6,0,0,1,2.18-1.63,8,8,0,0,1,5.51-.17,6.5,6.5,0,0,1,2.08,1.16,5.67,5.67,0,0,1,1.42,1.88,5.75,5.75,0,0,1,.53,2.49,6,6,0,0,1-.46,2.47,6.58,6.58,0,0,1-1.22,1.83,10.28,10.28,0,0,1-1.73,1.46l-1.94,1.28c-.65.43-1.28.89-1.9,1.37a8.78,8.78,0,0,0-1.62,1.71h9v3.31H191.44a7.81,7.81,0,0,1,.48-2.87,7.4,7.4,0,0,1,1.29-2.19,11.2,11.2,0,0,1,1.91-1.77c.73-.55,1.5-1.1,2.32-1.66.41-.29.86-.58,1.33-.88a9.17,9.17,0,0,0,1.29-1,5.16,5.16,0,0,0,1-1.22,3.06,3.06,0,0,0,.4-1.55,2.7,2.7,0,0,0-2.85-2.93,2.53,2.53,0,0,0-1.43.39,2.91,2.91,0,0,0-.93,1,4.3,4.3,0,0,0-.5,1.41,7.93,7.93,0,0,0-.15,1.53h-3.69A9,9,0,0,1,192.26,375.53Z"/><path class="cls-1" d="M208.3,376a8.46,8.46,0,0,1,1.51-3,5.34,5.34,0,0,1,2.21-1.63,7.23,7.23,0,0,1,2.67-.49,7.31,7.31,0,0,1,2.7.49,5.39,5.39,0,0,1,2.23,1.63,8.3,8.3,0,0,1,1.52,3,16.73,16.73,0,0,1,.56,4.66,17.35,17.35,0,0,1-.56,4.76,8.3,8.3,0,0,1-1.52,3.05,5.48,5.48,0,0,1-2.23,1.63,7.53,7.53,0,0,1-2.7.49,7.44,7.44,0,0,1-2.67-.49,5.43,5.43,0,0,1-2.21-1.63,8.45,8.45,0,0,1-1.51-3.05,17.39,17.39,0,0,1-.55-4.76A16.77,16.77,0,0,1,208.3,376Zm3.36,6.62a10.91,10.91,0,0,0,.33,2.23,5.07,5.07,0,0,0,.91,1.83,2.19,2.19,0,0,0,1.79.76,2.27,2.27,0,0,0,1.84-.76,4.79,4.79,0,0,0,.92-1.83,10.91,10.91,0,0,0,.34-2.23c0-.77.05-1.42.05-2,0-.33,0-.72,0-1.18a14.2,14.2,0,0,0-.11-1.43,11.93,11.93,0,0,0-.27-1.45,4.66,4.66,0,0,0-.53-1.29,2.83,2.83,0,0,0-.9-.92,2.33,2.33,0,0,0-1.33-.35,2.27,2.27,0,0,0-1.31.35,2.84,2.84,0,0,0-.87.92,5,5,0,0,0-.53,1.29,9,9,0,0,0-.27,1.45c-.05.49-.09,1-.1,1.43s0,.85,0,1.18C211.6,381.22,211.62,381.87,211.66,382.64Z"/><path class="cls-1" d="M224.87,375.53a7.06,7.06,0,0,1,1.3-2.44,6,6,0,0,1,2.19-1.63,7.5,7.5,0,0,1,3-.58,7.65,7.65,0,0,1,2.49.41,6.56,6.56,0,0,1,2.07,1.16,5.69,5.69,0,0,1,1.43,1.88,5.75,5.75,0,0,1,.53,2.49,6,6,0,0,1-.47,2.47,6.17,6.17,0,0,1-1.22,1.83,10.2,10.2,0,0,1-1.72,1.46l-1.94,1.28c-.65.43-1.29.89-1.9,1.37a8.83,8.83,0,0,0-1.63,1.71h9v3.31H224.06a7.41,7.41,0,0,1,1.76-5.06,11.2,11.2,0,0,1,1.91-1.77c.74-.55,1.51-1.1,2.32-1.66.42-.29.86-.58,1.33-.88a9.17,9.17,0,0,0,1.29-1,5.21,5.21,0,0,0,1-1.22,3.05,3.05,0,0,0,.39-1.55,2.89,2.89,0,0,0-.8-2.16,2.85,2.85,0,0,0-2.05-.77,2.49,2.49,0,0,0-1.42.39,3,3,0,0,0-.94,1,4.81,4.81,0,0,0-.5,1.41,7.93,7.93,0,0,0-.15,1.53h-3.69A9,9,0,0,1,224.87,375.53Z"/><path class="cls-1" d="M240.23,385.86v-3.53l8.25-11.07h3.44v11.42h2.53v3.18h-2.53v4.39h-3.66v-4.39Zm8-9.77-4.91,6.59h5v-6.59Z"/><path class="cls-2" d="M87.25,55.22h11.9a22.24,22.24,0,0,0,3.57-.29,1.66,1.66,0,0,0,1.37-1.31,47.23,47.23,0,0,1,46.1-37.28h2.44a43.61,43.61,0,0,0,.72-7.86V0h-3.16A63.5,63.5,0,0,0,87.25,55.22Z"/><path class="cls-3" d="M140.32,161.5a47.21,47.21,0,0,1-37.27-46.09V113a42.83,42.83,0,0,0-7.87-.73H86.71v3.17a63.49,63.49,0,0,0,55.21,62.94v-11.9a21.15,21.15,0,0,0-.29-3.57A1.68,1.68,0,0,0,140.32,161.5Z"/><path class="cls-4" d="M249.58,124a1.68,1.68,0,0,0-1.37,1.31,47.21,47.21,0,0,1-46.1,37.28h-2.44a43.61,43.61,0,0,0-.72,7.86h0v8.48h3.16a63.49,63.49,0,0,0,62.94-55.22h-11.9A22.24,22.24,0,0,0,249.58,124Z"/><path class="cls-5" d="M210.38.54v11.9a22.24,22.24,0,0,0,.29,3.57A1.68,1.68,0,0,0,212,17.39a47.21,47.21,0,0,1,37.27,46.09v2.45a43.91,43.91,0,0,0,7.88.72h8.47V63.48A63.5,63.5,0,0,0,210.38.54Z"/><polygon class="cls-6" points="153.35 170.41 153.35 170.41 153.35 178.89 153.35 178.89 153.35 170.41 153.35 170.41"/><polygon class="cls-7" points="198.95 178.89 198.95 178.89 198.95 170.41 198.95 170.41 198.95 170.41 198.95 178.89"/><polygon class="cls-6" points="198.95 8.48 198.95 8.47 198.95 0 198.95 0 198.95 8.47 198.95 8.48"/><polygon class="cls-7" points="153.35 0 153.35 0 153.35 8.47 153.35 8.48 153.35 8.47 153.35 0"/><path class="cls-8" d="M159.84,137a61,61,0,0,0-7.33-8.87l-15-15a60.45,60.45,0,0,0-8.88-7.33,59.38,59.38,0,0,0-33.4-10.19H86.71v16.67h8.47a42.84,42.84,0,0,1,30.49,12.63l15.06,15.06a42.83,42.83,0,0,1,12.62,30.48v8.48H170v-8.47A59.38,59.38,0,0,0,159.84,137Z"/><path class="cls-9" d="M166,54.14c-1.5,1.82-3.1,3.59-4.79,5.28l-15.05,15q-2.55,2.53-5.29,4.79A71.41,71.41,0,0,1,124.3,89.44a71.75,71.75,0,0,1-29.12,6.13h0a59.38,59.38,0,0,1,33.4,10.19,88,88,0,0,0,26-16.32q1.71-1.55,3.35-3.18L173,71.2q1.64-1.64,3.18-3.35A89.49,89.49,0,0,1,166,54.14Z"/><path class="cls-10" d="M153.35,0V8.48A42.83,42.83,0,0,1,140.73,39L125.67,54A42.84,42.84,0,0,1,95.18,66.65H86.71V83.32h8.47a59.38,59.38,0,0,0,33.4-10.19,60.45,60.45,0,0,0,8.88-7.33l15-15a61,61,0,0,0,7.33-8.87A59.38,59.38,0,0,0,170,8.47V0Z"/><path class="cls-11" d="M206.18,74.47l-15.06-15c-1.69-1.69-3.29-3.46-4.79-5.28a71.48,71.48,0,0,1-10.18-16.55A71.88,71.88,0,0,1,170,8.47h0a59.38,59.38,0,0,1-10.18,33.41h0A87.66,87.66,0,0,0,166,54.14a89.49,89.49,0,0,0,10.18,13.71q1.54,1.71,3.19,3.35l15,15.06q1.65,1.63,3.36,3.18a89.18,89.18,0,0,1,13.71-10.18Q208.71,77,206.18,74.47Z"/><path class="cls-1" d="M257.13,66.65A42.88,42.88,0,0,1,226.63,54L211.58,39A42.84,42.84,0,0,1,199,8.48V0H182.28V8.47a59.38,59.38,0,0,0,10.19,33.41,60.3,60.3,0,0,0,7.32,8.87l15.05,15a60.45,60.45,0,0,0,8.88,7.33,59.38,59.38,0,0,0,33.4,10.19h8.48V66.65h-8.47Z"/><path class="cls-12" d="M257.12,83.32a59.38,59.38,0,0,1-33.4-10.19,88,88,0,0,0-26,16.31Q196,91,194.39,92.63l-15,15.06q-1.65,1.64-3.19,3.35a88.84,88.84,0,0,1,10.18,13.71q2.25-2.73,4.79-5.28l15.06-15q2.53-2.53,5.28-4.79a71.68,71.68,0,0,1,45.67-16.31Z"/><path class="cls-13" d="M257.13,95.57a59.38,59.38,0,0,0-33.41,10.19,60.45,60.45,0,0,0-8.88,7.33l-15.05,15a60.3,60.3,0,0,0-7.32,8.87h0a59.31,59.31,0,0,0-10.19,33.41v8.47H199v-8.48h0a42.84,42.84,0,0,1,12.63-30.48l15-15.06a42.88,42.88,0,0,1,30.5-12.63h8.47V95.57Z"/><path class="cls-14" d="M186.33,124.75A88.84,88.84,0,0,0,176.15,111q-1.54-1.71-3.18-3.35L157.91,92.63q-1.64-1.63-3.36-3.19a88,88,0,0,1-13.71,10.19q2.74,2.25,5.29,4.79l15.05,15q2.53,2.55,4.79,5.28a71.9,71.9,0,0,1,16.31,45.67A59.31,59.31,0,0,1,192.47,137h0A87.72,87.72,0,0,0,186.33,124.75Z"/><path class="cls-11" d="M280.49,257.74a3.33,3.33,0,0,0,3.24-2.15l2.64-7.26c.24-.64,0-1-.67-1H268a3.66,3.66,0,0,0-3.59,2.39l-2.56,7c-.23.64,0,1,.68,1ZM56.66,248.41H44a4.89,4.89,0,0,0-5,3l-10.36,22-10.27-22a5.27,5.27,0,0,0-5.09-3h-12c-1.36,0-1.72.63-1,2l19.92,39.15v21.9c0,1,.45,1.54,1.36,1.54h14c.9,0,1.35-.54,1.35-1.54V289.73L57.65,250.4C58.37,249,58,248.41,56.66,248.41Zm44,15.38H90.32a3.48,3.48,0,0,0-3.64,3.62v33H80.87c-4,.08-5.9-.26-7.2-1.83-1-1.91-1.48-4.77-1.31-10.93V265.18c0-1-.43-1.39-1.3-1.39H60.89a3.72,3.72,0,0,0-3.71,3.71v24.75c0,9,.87,13.88,4.25,17.09s8.07,4.08,17.1,4.08q13.92,0,22.12-1.56c1-.26,1.22-.43,1.22-1.48v-45.2C101.87,264.22,101.43,263.79,100.65,263.79Zm47.26.69a65.35,65.35,0,0,0-13.46-1.13c-11.8.26-17.36,1.48-20.48,7.64-1.82,4.08-2.52,8.94-2.52,17.35v.09c0,8.42.7,13.28,2.52,17.36,3.12,6.16,8.68,7.37,20.48,7.63a64.65,64.65,0,0,0,13.46-1.13c1.92-.37,2.76-1.75,2.76-3.94v-6.56c0-1-.52-1.38-1.56-1.38H134.45c-3.21,0-5.38-.79-6.43-2.35s-1.45-4.7-1.47-9.46h0v-.43h0c0-4.76.53-7.92,1.47-9.46s3.22-2.34,6.43-2.34h14.66c1,0,1.56-.44,1.56-1.39v-6.55C150.67,266.23,149.83,264.85,147.91,264.48Zm197.83,2.95c-3.39-3.21-8.07-4.08-17-4.08-10.5,0-18,.52-22.21,1.56-.78.18-1.22.27-1.22,1.31V311.6c0,.95.44,1.39,1.22,1.39h12.75c.87,0,1.3-.44,1.3-1.39V276.37h5.82c4.25,0,5.72-.09,7.11,1.91s1.39,4.34,1.39,10.84V311.6c0,.95.44,1.39,1.22,1.39h12.58c.87,0,1.3-.44,1.3-1.39V284.44C350,275.41,349.12,270.64,345.74,267.43Zm-73.56-4.08A87.1,87.1,0,0,0,257,264.49c-2,.36-3,1.56-3,3.94v6.64c0,.86.34,1.3,1.13,1.3h17c4.43,0,6.6,1.73,6.6,5.12v1.73l-9.55.09c-6.68,0-11.45,1-14.4,2.95s-4.43,5.82-4.51,11.63c.52,8.85,2.51,12.58,8.15,14.32a29.25,29.25,0,0,0,5.82,1c1.9.17,4.42.26,7.63.26a100.61,100.61,0,0,0,20-1.82,2.58,2.58,0,0,0,2.08-2.78V279C294,269.69,291.19,263.44,272.18,263.35Zm6.6,37.23a34,34,0,0,1-7.38.69c-4.77,0-6.16-.95-6.16-4.42,0-3.21,1.3-4.51,5.47-4.51h8.07Zm-98.87-37.23a87.18,87.18,0,0,0-15.17,1.14c-2,.36-3,1.56-3,3.94v6.64c0,.86.35,1.3,1.13,1.3h17c4.43,0,6.6,1.73,6.6,5.12v1.73l-9.55.09c-6.68,0-11.45,1-14.4,2.95s-4.43,5.82-4.51,11.63c.52,8.85,2.51,12.58,8.15,14.32a29.25,29.25,0,0,0,5.82,1c1.91.17,4.42.26,7.63.26a100.61,100.61,0,0,0,20-1.82,2.58,2.58,0,0,0,2.08-2.78V279C201.69,269.69,198.92,263.44,179.91,263.35Zm6.6,37.23a34,34,0,0,1-7.38.69c-4.77,0-6.16-.95-6.16-4.42,0-3.21,1.3-4.51,5.47-4.51h8.07Zm53.86-.68h-3.43c-3.88,0-5.14-.82-5.14-4.51V273.75h7.75c1,0,1.54-.45,1.54-1.44v-8.75c0-.9-.54-1.35-1.54-1.35H231.8V250.58a1.38,1.38,0,0,0-1.57-1.45l-9.74,0c-2.6,0-4.38,1.18-4.38,4.5v8.61H210.7c-1,0-1.53.45-1.53,1.35v8.75c0,1,.54,1.44,1.53,1.44h5.41v27.32c0,5.77,1.35,9.2,4.6,10.73a18.35,18.35,0,0,0,4.6,1.35,49,49,0,0,0,15.06-.72,1.69,1.69,0,0,0,1.53-1.8v-9.38C241.9,300.35,241.36,299.9,240.37,299.9Z"/><path class="cls-11" d="M18.36,213.66a.43.43,0,0,1,.48.49v11.91c0,4.82-.71,8.11-2.18,9.84s-4.27,2.61-8.47,2.61A26.34,26.34,0,0,1,3,238a.81.81,0,0,1-.75-.82v-2.67a.43.43,0,0,1,.49-.49H8.19c2.25,0,3.75-.52,4.46-1.6s1.11-3.22,1.08-6.38V214.15a.43.43,0,0,1,.49-.49Z"/><path class="cls-11" d="M38.46,220.1c.29,0,.46.16.46.49V237.4c0,.39-.1.45-.46.55a44.19,44.19,0,0,1-7.82.56c-3.29,0-4.95-.26-6.25-1.44s-1.6-3-1.6-6.42V220.59c0-.33.16-.49.52-.49h3.85c.29,0,.45.16.45.49v8.83a14.3,14.3,0,0,0,.29,3.42c.4,1.3,1,1.5,3.23,1.5h2.93V220.59a.43.43,0,0,1,.49-.49Z"/><path class="cls-11" d="M57.29,221.37c1.31,1.17,1.63,3,1.63,6.38v10.07c0,.36-.16.52-.52.52H54.56c-.33,0-.49-.16-.49-.52V229c0-2.44,0-3.48-.65-4.17s-1.14-.72-2.84-.72h-3v13.72c0,.36-.17.52-.49.52H43.25c-.32,0-.49-.16-.49-.52V221c0-.39.17-.43.49-.49a39.9,39.9,0,0,1,7.79-.56C54.33,219.93,56,220.19,57.29,221.37Z"/><path class="cls-11" d="M67.88,215.05c.36-.1.53.06.53.49v4.65h3c.36,0,.56.17.56.49v2.61c0,.33-.2.49-.56.49h-3v8.89c0,1.34.45,1.67,1.92,1.67h1.33c.36,0,.56.16.56.48v2.77a.56.56,0,0,1-.52.62,13.78,13.78,0,0,1-2.77.3,9.63,9.63,0,0,1-3.07-.3c-1.53-.42-2.15-1.43-2.28-3.91V223.78H61.66c-.36,0-.52-.16-.52-.49v-2.61c0-.32.16-.49.52-.49h1.92v-3.61a.5.5,0,0,1,.46-.52Z"/><path class="cls-11" d="M89.26,221.82c1.3,1.44,1.63,3.52,1.63,7.4s-.56,6.22-1.63,7.46-3.32,1.83-6.68,1.83-5.6-.62-6.68-1.83-1.63-3.71-1.63-7.46.56-6.22,1.63-7.43,3.32-1.86,6.68-1.86C86.1,219.93,88,220.36,89.26,221.82Zm-9.51,3.29c-.43.66-.62,2-.62,4.11s.19,3.45.62,4.14,1.36,1,2.83,1,2.41-.33,2.83-1a8.71,8.71,0,0,0,.66-4.14c0-2.09-.23-3.45-.66-4.11s-1.36-1-2.83-1S80.17,224.43,79.75,225.11Z"/><path class="cls-11" d="M106.36,220.36c.36.09.53.26.53.52v2.47c0,.36-.2.53-.56.53h-5.86c-1.27,0-1.92.39-1.92,1.17v.33c0,.62.52,1.14,1.56,1.49l4.17,1.47c2.61.91,3.42,2.44,3.42,4.89v.52c0,3.55-2.41,4.76-6.94,4.76a61.71,61.71,0,0,1-6.74-.33c-.36,0-.56-.16-.56-.49v-2.64c0-.32.2-.49.56-.49h6.68c1.72,0,2.24-.22,2.24-1.11v-.29c0-.65-.39-1-1.79-1.53l-4-1.43c-2.21-.75-3.32-2.41-3.32-4.95v-.62c0-3.36,2.48-4.7,7.4-4.7A29.3,29.3,0,0,1,106.36,220.36Z"/><path class="cls-11" d="M121.94,215.05c.36-.1.52.06.52.49v4.65h3c.36,0,.55.17.55.49v2.61c0,.33-.19.49-.55.49h-3v8.89c0,1.34.46,1.67,1.93,1.67h1.33c.36,0,.55.16.55.48v2.77a.55.55,0,0,1-.52.62,13.7,13.7,0,0,1-2.77.3,9.57,9.57,0,0,1-3.06-.3c-1.53-.42-2.15-1.43-2.28-3.91V223.78h-1.92c-.36,0-.52-.16-.52-.49v-2.61c0-.32.16-.49.52-.49h1.92v-3.61a.49.49,0,0,1,.46-.52Z"/><path class="cls-11" d="M139.05,220.29a.61.61,0,0,1,.52.65v2.68c0,.32-.2.48-.55.48H136c-1.79,0-2.28.33-2.28,1.67v12c0,.36-.16.52-.49.52h-3.87c-.33,0-.49-.16-.49-.52V224.53a4.65,4.65,0,0,1,1.2-3.39,7.11,7.11,0,0,1,4.69-1.21A21.66,21.66,0,0,1,139.05,220.29Z"/><path class="cls-11" d="M154.26,221.3a5.18,5.18,0,0,1,1.67,4.24v11.27a1,1,0,0,1-.72,1,33.6,33.6,0,0,1-7.4.69c-2.73,0-4.1-.14-5.54-.88s-2-2.25-2-4.76c0-2.09.55-3.49,1.59-4.24a9.06,9.06,0,0,1,5.09-1.11h4.13v-1.17c0-1.5-1-2.25-3.06-2.25h-5.9c-.35,0-.45-.09-.45-.48v-2.68c0-.35.1-.42.45-.52a31.45,31.45,0,0,1,5.9-.49C151.07,219.93,153.16,220.39,154.26,221.3Zm-3.16,9.35h-3.74c-1.7,0-2.28.52-2.28,2s.68,2,2.76,2a12.07,12.07,0,0,0,3.26-.33Z"/><path class="cls-11" d="M174.2,221.37c1.31,1.17,1.63,3,1.63,6.38v10.07c0,.36-.16.52-.52.52h-3.84c-.33,0-.49-.16-.49-.52V229c0-2.44,0-3.48-.65-4.17s-1.14-.72-2.84-.72h-3v13.72c0,.36-.16.52-.49.52h-3.88c-.32,0-.49-.16-.49-.52V221c0-.39.17-.43.49-.49a39.9,39.9,0,0,1,7.79-.56C171.24,219.93,172.93,220.19,174.2,221.37Z"/><path class="cls-11" d="M191.74,220.36c.35.09.52.26.52.52v2.47c0,.36-.2.53-.56.53h-5.86c-1.27,0-1.92.39-1.92,1.17v.33c0,.62.52,1.14,1.56,1.49l4.17,1.47c2.61.91,3.42,2.44,3.42,4.89v.52c0,3.55-2.41,4.76-6.94,4.76a61.71,61.71,0,0,1-6.74-.33c-.36,0-.56-.16-.56-.49v-2.64c0-.32.2-.49.56-.49h6.68c1.72,0,2.24-.22,2.24-1.11v-.29c0-.65-.39-1-1.79-1.53l-4-1.43c-2.21-.75-3.32-2.41-3.32-4.95v-.62c0-3.36,2.48-4.7,7.4-4.7A29.49,29.49,0,0,1,191.74,220.36Z"/><path class="cls-11" d="M206.69,213.29a.55.55,0,0,1,.52.62v2.7c0,.36-.19.52-.55.52h-2.58c-1.33,0-1.82.23-1.82,1.27v1.73h4c.32,0,.45.2.39.55l-.49,2.74a.54.54,0,0,1-.56.46h-3.32v13.94c0,.36-.16.52-.49.52h-3.84c-.33,0-.49-.16-.49-.52V223.88h-2.12c-.36,0-.55-.17-.55-.49v-2.77c0-.33.19-.49.55-.49h2.12v-2.57c0-2,.62-3.23,1.79-3.85a7.68,7.68,0,0,1,3.94-.75A17.73,17.73,0,0,1,206.69,213.29Z"/><path class="cls-11" d="M222.56,221.82c1.3,1.44,1.63,3.52,1.63,7.4s-.56,6.22-1.63,7.46-3.32,1.83-6.68,1.83-5.6-.62-6.68-1.83-1.63-3.71-1.63-7.46.56-6.22,1.63-7.43,3.32-1.86,6.68-1.86C219.4,219.93,221.26,220.36,222.56,221.82Zm-9.51,3.29c-.43.66-.62,2-.62,4.11s.19,3.45.62,4.14,1.36,1,2.83,1,2.41-.33,2.83-1a8.71,8.71,0,0,0,.66-4.14c0-2.09-.23-3.45-.66-4.11s-1.36-1-2.83-1S213.47,224.43,213.05,225.11Z"/><path class="cls-11" d="M237.71,220.29a.61.61,0,0,1,.52.65v2.68c0,.32-.19.48-.55.48h-3.06c-1.8,0-2.28.33-2.28,1.67v12c0,.36-.17.52-.49.52H228c-.33,0-.49-.16-.49-.52V224.53a4.61,4.61,0,0,1,1.21-3.39c1.2-1,2.86-1.21,4.69-1.21A21.62,21.62,0,0,1,237.71,220.29Z"/><path class="cls-11" d="M264.2,221.37c1,.94,1.53,2.77,1.53,5.47l0,11c0,.36-.16.52-.49.52h-3.84c-.33,0-.49-.16-.49-.52V229c-.17-4.79-.3-4.75-3.1-4.89a16.86,16.86,0,0,0-2.64.2,10.71,10.71,0,0,1,.43,3.45l0,10.07c0,.36-.16.52-.45.52H251.2c-.29,0-.46-.16-.46-.52v-9.94c0-1.85-.09-2.73-.65-3.22s-1-.56-2.47-.56H245.4v13.72c0,.36-.16.52-.49.52h-3.84c-.33,0-.49-.16-.49-.52V221a.46.46,0,0,1,.42-.49,30.6,30.6,0,0,1,6.26-.56,13.63,13.63,0,0,1,5.83,1,15.59,15.59,0,0,1,5.67-1.08C261.37,219.9,263.19,220.39,264.2,221.37Z"/><path class="cls-11" d="M283.52,221.76c1.08,1.2,1.6,3.62,1.63,7.23v1c0,.65-.23.88-1,.88H273.88c0,1.44.26,2.38.75,2.8a4.65,4.65,0,0,0,2.93.66h5.77a.43.43,0,0,1,.49.48v2.71a.49.49,0,0,1-.46.52,33.49,33.49,0,0,1-6.22.46c-3.29,0-5.48-.62-6.55-1.86s-1.63-3.72-1.63-7.43.55-6.22,1.63-7.43,3.26-1.86,6.55-1.86S282.48,220.55,283.52,221.76Zm-9.67,6h6.45c0-2.83-.78-3.62-3.16-3.62S273.88,224.89,273.85,227.72Z"/><path class="cls-11" d="M311.81,221.37c1,.94,1.53,2.77,1.53,5.47l0,11c0,.36-.16.52-.48.52H309c-.32,0-.49-.16-.49-.52V229c-.16-4.79-.29-4.75-3.09-4.89a16.67,16.67,0,0,0-2.64.2,11,11,0,0,1,.42,3.45l0,10.07c0,.36-.16.52-.46.52h-3.87c-.3,0-.46-.16-.46-.52v-9.94c0-1.85-.1-2.73-.65-3.22s-1-.56-2.48-.56H293v13.72c0,.36-.17.52-.49.52h-3.85c-.32,0-.49-.16-.49-.52V221a.46.46,0,0,1,.43-.49,30.49,30.49,0,0,1,6.25-.56,13.68,13.68,0,0,1,5.84,1,15.5,15.5,0,0,1,5.66-1.08C309,219.9,310.8,220.39,311.81,221.37Z"/><path class="cls-11" d="M331.55,221.82c1.31,1.44,1.63,3.52,1.63,7.4s-.55,6.22-1.63,7.46-3.32,1.83-6.68,1.83-5.6-.62-6.68-1.83-1.63-3.71-1.63-7.46.56-6.22,1.63-7.43,3.33-1.86,6.68-1.86C328.39,219.93,330.25,220.36,331.55,221.82ZM322,225.11c-.42.66-.62,2-.62,4.11a9,9,0,0,0,.62,4.14c.42.65,1.37,1,2.83,1s2.41-.33,2.84-1a8.88,8.88,0,0,0,.65-4.14,8.64,8.64,0,0,0-.65-4.11c-.43-.68-1.37-1-2.84-1S322.46,224.43,322,225.11Z"/><path class="cls-11" d="M348.66,220.36c.36.09.52.26.52.52v2.47c0,.36-.19.53-.55.53h-5.87c-1.27,0-1.92.39-1.92,1.17v.33c0,.62.52,1.14,1.56,1.49l4.17,1.47c2.61.91,3.42,2.44,3.42,4.89v.52c0,3.55-2.41,4.76-6.93,4.76a61.89,61.89,0,0,1-6.75-.33c-.36,0-.55-.16-.55-.49v-2.64c0-.32.19-.49.55-.49H343c1.73,0,2.25-.22,2.25-1.11v-.29c0-.65-.39-1-1.79-1.53l-4-1.43c-2.22-.75-3.32-2.41-3.32-4.95v-.62c0-3.36,2.47-4.7,7.39-4.7A29.49,29.49,0,0,1,348.66,220.36Z"/></g></g></svg>